
        <svg xmlns="http://www.w3.org/2000/svg" version="1.1" width="3151.456371364638" height="470.3555021114761" viewBox="0 0 3151.456371364638 470.3555021114761">
			
			<g transform="scale(7.572818568231899) translate(10, 10)">
				<defs id="SvgjsDefs2596"/><g id="SvgjsG2597" transform="matrix(0.7605661119257282,0,0,0.7605661119257282,-1.5515542953159156,2.5160293425976556)" fill="#fff"><path d="M29.52 30.84 l0 5.28 c0 0.56 0.16 0.96 0.16 1.28 s-0.24 0.48 -0.64 0.64 c-3.24 1.64 -6.64 2.56 -11.72 2.56 c-4.16 0 -8.84 -1.32 -11.6 -4.56 c-2.44 -2.76 -3.68 -6.16 -3.68 -11 c0 -3.64 1.72 -7.52 4.64 -10.04 c2.92 -2.56 6.52 -3.92 11.32 -3.92 c4.04 0 7.04 1.12 8.36 1.96 c0.48 0.28 0.76 0.2 1 -0.12 l0.4 -0.64 c0.2 -0.28 0.28 -0.4 0.52 -0.4 c0.44 0 0.56 0.28 0.56 0.72 l0.6 8.24 c0.04 0.48 0 0.68 -0.16 0.72 l-1.12 0.24 c-0.24 0.04 -0.36 -0.04 -0.48 -0.4 c-0.64 -1.96 -1.92 -4.52 -3.64 -6.08 c-1.56 -1.48 -3.6 -2.48 -6.32 -2.48 c-2.16 0 -4.16 0.68 -6.04 3 c-1.84 2.2 -3.2 5.52 -3.2 9.12 c0 4.72 1.32 8.84 3.48 11 c1.88 1.88 3.4 2.72 6.12 2.72 c2.08 0 3.2 -0.16 4.52 -0.8 c0.84 -0.4 0.92 -1.68 0.92 -3.76 l0 -2.88 c0 -1.44 -0.4 -1.84 -1.4 -1.84 l-1.68 0 c-0.24 0 -0.28 -0.16 -0.28 -0.36 l0 -1 c0 -0.16 0.04 -0.28 0.28 -0.28 c0.36 0 2.32 0.12 5.92 0.12 c3.68 0 5.16 -0.12 5.48 -0.12 s0.36 0.12 0.36 0.32 l0 1 c0 0.24 -0.04 0.32 -0.28 0.32 l-1.16 0 c-0.72 0 -1.24 0.28 -1.24 1.44 z M38.56 25.68 l0 -3.88 c0 -2.96 0 -5.52 -0.04 -6.6 c-0.04 -1.32 -0.56 -2 -1.12 -2 l-1.6 0 c-0.2 0 -0.24 -0.12 -0.24 -0.28 l0 -1.08 c0 -0.2 0.04 -0.28 0.24 -0.28 c0.36 0 1.6 0.12 5.96 0.12 c2.24 0 5.76 -0.12 7.4 -0.12 c3.12 0 5.44 1.12 7.08 2.64 c1.44 1.32 2.28 2.88 2.28 4.36 c0 5.08 -3.8 7.36 -7.32 7.68 l0 0.28 c1.24 0.4 1.88 1.16 2.64 2.12 c0.52 0.64 2.72 4.2 3.04 4.68 c0.24 0.36 2.4 3.4 3.2 4.32 c0.48 0.52 2 0.84 2.92 0.84 c0.28 0 0.32 0.16 0.32 0.32 l0 0.96 c0 0.24 -0.04 0.36 -0.32 0.36 c-0.32 0 -1.36 -0.12 -4.44 -0.12 c-1.16 0 -2.64 0.08 -3.8 0.12 c-1.2 -0.92 -3.68 -5.56 -4.36 -6.92 c-1.36 -2.72 -3 -5.68 -4.92 -5.68 l-1.36 0 l0 2.04 c0 2.36 0.12 6.84 0.2 7.36 c0.08 0.84 0.4 1.56 1 1.56 l1.64 0 c0.28 0 0.32 0.12 0.32 0.32 l0 0.96 c0 0.28 -0.04 0.36 -0.64 0.36 c-0.04 0 -1.04 -0.12 -5.24 -0.12 c-4.24 0 -5.16 0.12 -5.6 0.12 c-0.32 0 -0.32 -0.12 -0.32 -0.4 l0 -0.92 c0 -0.2 0 -0.32 0.2 -0.32 l1.2 0 c0.88 0 1.6 -0.28 1.6 -1.28 c0.08 -3.96 0.08 -7.72 0.08 -11.52 z M44.36 14.440000000000001 l-0.2 11.68 c0.76 0.04 1.24 0.04 1.6 0.04 c5.28 0 6.52 -5.04 6.52 -6.92 c0 -1.84 -0.64 -3.6 -1.52 -4.48 c-1.44 -1.28 -3.24 -1.76 -4.44 -1.76 c-0.68 0 -1.2 0.08 -1.52 0.36 c-0.24 0.16 -0.36 0.6 -0.44 1.08 z M74.08 13.04 l-0.12 11.64 c1.84 0 3.6 -0.12 4.08 -0.24 c0.68 -0.16 1.24 -0.52 1.84 -1.24 c0.44 -0.6 0.92 -1.72 0.92 -2.48 c0 -0.28 0.12 -0.36 0.32 -0.36 l1.08 0.12 c0.2 0.04 0.36 0.08 0.32 0.32 c-0.12 0.68 -0.12 2.76 -0.12 4.16 c0 1.8 0.16 3.72 0.24 4.56 c0.04 0.24 -0.12 0.28 -0.32 0.32 l-0.96 0.2 c-0.16 0.04 -0.24 -0.04 -0.32 -0.32 c-0.16 -0.64 -0.56 -1.56 -0.8 -2.04 c-0.44 -0.76 -1.4 -1.28 -2.2 -1.4 c-1.08 -0.16 -2.32 -0.24 -4.08 -0.24 l0 2.4 c0 2.16 0.2 6.04 0.2 6.76 c0 2.08 0.44 2.8 0.96 3.04 c0.6 0.24 1.36 0.36 3.36 0.36 c0.68 0 2.36 -0.04 3.2 -0.12 c0.8 -0.08 2 -0.48 3.04 -1.32 s3.28 -3.32 4.08 -4.28 c0.16 -0.16 0.28 -0.2 0.4 -0.12 l0.68 0.4 c0.16 0.08 0.2 0.2 0.16 0.32 l-1.8 6.04 c-0.12 0.36 -0.4 0.6 -0.88 0.6 c-0.2 0 -1.08 -0.04 -3.64 -0.08 c-2.6 0 -6.84 -0.04 -13.76 -0.04 c-1.48 0 -2.6 0.04 -3.4 0.04 c-0.84 0.04 -1.36 0.08 -1.72 0.08 c-0.28 0 -0.36 -0.12 -0.36 -0.44 l0 -0.84 c0 -0.24 0.12 -0.36 0.4 -0.36 l1.2 0 c1.84 0 2 -0.28 2 -1.68 l0 -13.4 c0 -3.32 -0.08 -8.24 -0.12 -8.64 c-0.16 -1.28 -0.56 -1.56 -1.64 -1.56 l-1.56 0 c-0.16 0 -0.2 -0.12 -0.2 -0.4 l0 -0.96 c0 -0.12 0.04 -0.28 0.28 -0.28 c0.88 0 2.28 0.12 5.92 0.12 l14.04 -0.04 c0.64 0 1.4 -0.08 1.6 -0.08 s0.28 0.08 0.32 0.2 c0.16 0.56 1.48 6.04 1.64 6.44 c0.08 0.2 0.08 0.28 -0.12 0.4 l-0.64 0.32 c-0.16 0.08 -0.36 0.04 -0.48 -0.16 c-0.2 -0.32 -3.8 -3.92 -4.72 -4.48 c-0.84 -0.52 -1.96 -1.04 -3.04 -1.08 z M107.36 29.04 l-8.76 0 c-0.32 0.84 -2.28 6.32 -2.28 7.6 c0 0.88 0.36 1.84 1.56 1.84 l1.4 0 c0.4 0 0.44 0.16 0.44 0.32 l0 0.88 c0 0.32 -0.04 0.44 -0.36 0.44 c-0.52 0 -2.16 -0.12 -5.44 -0.12 c-2.92 0 -3.8 0.12 -4.36 0.12 c-0.24 0 -0.28 -0.24 -0.28 -0.52 l0 -0.76 c0 -0.24 0.04 -0.36 0.28 -0.36 l1.04 0 c0.96 0 1.92 -0.56 2.72 -1.76 c0.56 -0.84 3.4 -7.8 4.72 -11.32 c0.32 -0.8 3.56 -9.4 3.92 -10.48 c0.12 -0.4 0.32 -0.92 0.04 -1.36 c-0.12 -0.16 -0.28 -0.36 -0.28 -0.52 c0 -0.12 0.08 -0.28 0.4 -0.36 c1.28 -0.28 3.88 -1.32 4.48 -2 c0.2 -0.2 0.32 -0.36 0.52 -0.36 c0.24 0 0.32 0.24 0.44 0.68 c0.76 2.52 3.88 11.48 4.64 14.04 c0.92 3.12 3.52 10.56 4.08 11.64 c0.68 1.32 1.72 1.8 2.32 1.8 l1.36 0 c0.24 0 0.28 0.16 0.28 0.36 l0 0.76 c0 0.24 -0.04 0.52 -0.36 0.52 c-0.76 0 -1.6 -0.12 -6.72 -0.12 c-3.32 0 -4.72 0.12 -5.52 0.12 c-0.4 0 -0.44 -0.24 -0.44 -0.52 l0 -0.76 c0 -0.2 0.04 -0.36 0.24 -0.36 l1.12 0 c1.08 0 1.44 -0.4 1.2 -1.44 c-0.36 -1.44 -1.92 -6.56 -2.4 -8 z M99.12 27.439999999999998 l7.88 0 c-0.36 -1.2 -2.72 -9.6 -3 -10.6 c-0.16 -0.6 -0.24 -0.88 -0.44 -0.88 c-0.24 0 -0.36 0.16 -0.48 0.52 c-0.2 0.52 -3.64 9.96 -3.96 10.96 z M131.32 23.4 l0 -9.88 l-1.4 0 c-1.28 0 -3.68 0.04 -5.36 0.64 c-0.88 0.64 -2.64 3.08 -3.64 4.52 c-0.12 0.2 -0.24 0.32 -0.4 0.28 l-0.88 -0.32 c-0.16 -0.04 -0.2 -0.24 -0.16 -0.36 c0.44 -1.68 1.76 -6.96 1.92 -7.76 c0.12 -0.52 0.32 -0.68 0.6 -0.68 s0.4 0.16 0.76 0.6 c0.44 0.56 1.2 0.92 2.64 1 c2.12 0.12 3.8 0.24 7.96 0.24 l2.32 0 c4.36 0 6.08 -0.16 7.76 -0.24 c0.88 -0.04 2.44 -0.52 2.92 -1 c0.4 -0.4 0.64 -0.6 0.92 -0.6 s0.4 0.16 0.48 0.64 c0.12 0.88 0.88 5.84 1.2 7.96 c0.04 0.16 -0.04 0.32 -0.16 0.36 l-0.84 0.32 c-0.16 0.04 -0.24 -0.08 -0.4 -0.36 c-0.88 -1.44 -2.44 -3.52 -3.44 -4.48 c-1 -0.6 -4.56 -0.76 -5.48 -0.76 l-1.32 0 l0 11 c0 0.56 0 11.76 0.04 12.36 c0.08 1 0.4 1.6 1.36 1.6 l1.8 0 c0.36 0 0.4 0.12 0.4 0.4 l0 0.92 c0 0.2 -0.04 0.32 -0.4 0.32 c-0.4 0 -1.68 -0.12 -6.12 -0.12 c-4.24 0 -5.92 0.12 -6.48 0.12 c-0.32 0 -0.36 -0.16 -0.36 -0.48 l0 -0.76 c0 -0.28 0.04 -0.4 0.28 -0.4 l2.04 0 c0.8 0 1.28 -0.48 1.36 -1.2 c0.08 -0.84 0.08 -13.12 0.08 -13.88 z M162.64 26.04 l0 -2.8 c0 -0.96 -0.12 -8.16 -0.16 -8.68 c-0.08 -0.96 -0.48 -1.36 -1.32 -1.36 l-1.92 0 c-0.2 0 -0.32 -0.08 -0.32 -0.24 l0 -1.16 c0 -0.16 0.12 -0.24 0.28 -0.24 c0.48 0 2.52 0.12 6.44 0.12 c4.08 0 5.36 -0.12 5.92 -0.12 c0.2 0 0.28 0.12 0.28 0.36 l0 1 c0 0.2 -0.12 0.28 -0.32 0.28 l-1.16 0 c-1 0 -1.6 0.32 -1.6 1.04 c0 0.4 -0.12 9.24 -0.12 9.72 l0 3.08 c0 0.4 0.12 9.64 0.12 10 c0 1.24 0.6 1.44 1.36 1.44 l1.64 0 c0.2 0 0.32 0.08 0.32 0.28 l0 1.12 c0 0.16 -0.12 0.24 -0.36 0.24 c-0.48 0 -2.08 -0.12 -5.88 -0.12 c-4.2 0 -5.92 0.12 -6.36 0.12 c-0.2 0 -0.32 -0.08 -0.32 -0.32 l0 -1.08 c0 -0.16 0.12 -0.24 0.32 -0.24 l1.16 0 c0.8 0 1.64 -0.12 1.8 -1.08 c0.08 -0.6 0.2 -9.24 0.2 -11.36 z M178.79999999999998 24.64 l0 -3 c0 -1.04 -0.12 -6.72 -0.2 -7.32 c-0.12 -0.96 -0.64 -1.12 -1.32 -1.12 l-2 0 c-0.2 0 -0.32 -0.04 -0.32 -0.28 l0 -1.16 c0 -0.16 0.12 -0.2 0.28 -0.2 c0.52 0 2.28 0.12 6.28 0.12 c1.04 0 5.04 -0.12 5.96 -0.12 c5.44 0 9.76 0.48 13.56 3.64 c2.64 2.2 4.48 5.52 4.48 10.16 c0 4.6 -1.32 7.64 -3.96 10.52 c-3.88 4.2 -10.72 4.24 -13.24 4.24 c-0.64 0 -5.36 -0.12 -7.56 -0.12 c-3.48 0 -5.08 0.12 -5.64 0.12 c-0.2 0 -0.28 -0.08 -0.28 -0.36 l0 -1.04 c0 -0.16 0.12 -0.24 0.32 -0.24 l2.08 0 c0.76 0 1.2 -0.32 1.28 -0.96 c0.12 -0.84 0.28 -9.84 0.28 -12.88 z M184.79999999999998 22.68 l0 2.84 c0 0.52 0.04 7.32 0.08 9.8 c0 0.8 0.16 1.44 0.68 2.2 c0.48 0.72 1.84 0.96 3.2 0.96 c2.32 0 5.4 -1.16 7.48 -3.92 c1.6 -2.12 2.84 -5.4 2.84 -9.12 c0 -3.28 -1.36 -6.64 -3.24 -8.72 c-2.12 -2.36 -5.64 -3.64 -7.96 -3.64 c-1.12 0 -1.72 0.04 -2.24 0.32 c-0.6 0.28 -0.76 0.92 -0.8 1.72 c-0.04 1.68 -0.04 6.92 -0.04 7.56 z M218.64000000000001 13.04 l-0.12 11.64 c1.84 0 3.6 -0.12 4.08 -0.24 c0.68 -0.16 1.24 -0.52 1.84 -1.24 c0.44 -0.6 0.92 -1.72 0.92 -2.48 c0 -0.28 0.12 -0.36 0.32 -0.36 l1.08 0.12 c0.2 0.04 0.36 0.08 0.32 0.32 c-0.12 0.68 -0.12 2.76 -0.12 4.16 c0 1.8 0.16 3.72 0.24 4.56 c0.04 0.24 -0.12 0.28 -0.32 0.32 l-0.96 0.2 c-0.16 0.04 -0.24 -0.04 -0.32 -0.32 c-0.16 -0.64 -0.56 -1.56 -0.8 -2.04 c-0.44 -0.76 -1.4 -1.28 -2.2 -1.4 c-1.08 -0.16 -2.32 -0.24 -4.08 -0.24 l0 2.4 c0 2.16 0.2 6.04 0.2 6.76 c0 2.08 0.44 2.8 0.96 3.04 c0.6 0.24 1.36 0.36 3.36 0.36 c0.68 0 2.36 -0.04 3.2 -0.12 c0.8 -0.08 2 -0.48 3.04 -1.32 s3.28 -3.32 4.08 -4.28 c0.16 -0.16 0.28 -0.2 0.4 -0.12 l0.68 0.4 c0.16 0.08 0.2 0.2 0.16 0.32 l-1.8 6.04 c-0.12 0.36 -0.4 0.6 -0.88 0.6 c-0.2 0 -1.08 -0.04 -3.64 -0.08 c-2.6 0 -6.84 -0.04 -13.76 -0.04 c-1.48 0 -2.6 0.04 -3.4 0.04 c-0.84 0.04 -1.36 0.08 -1.72 0.08 c-0.28 0 -0.36 -0.12 -0.36 -0.44 l0 -0.84 c0 -0.24 0.12 -0.36 0.4 -0.36 l1.2 0 c1.84 0 2 -0.28 2 -1.68 l0 -13.4 c0 -3.32 -0.08 -8.24 -0.12 -8.64 c-0.16 -1.28 -0.56 -1.56 -1.64 -1.56 l-1.56 0 c-0.16 0 -0.2 -0.12 -0.2 -0.4 l0 -0.96 c0 -0.12 0.04 -0.28 0.28 -0.28 c0.88 0 2.28 0.12 5.92 0.12 l14.04 -0.04 c0.64 0 1.4 -0.08 1.6 -0.08 s0.28 0.08 0.32 0.2 c0.16 0.56 1.48 6.04 1.64 6.44 c0.08 0.2 0.08 0.28 -0.12 0.4 l-0.64 0.32 c-0.16 0.08 -0.36 0.04 -0.48 -0.16 c-0.2 -0.32 -3.8 -3.92 -4.72 -4.48 c-0.84 -0.52 -1.96 -1.04 -3.04 -1.08 z M251.92000000000002 29.04 l-8.76 0 c-0.32 0.84 -2.28 6.32 -2.28 7.6 c0 0.88 0.36 1.84 1.56 1.84 l1.4 0 c0.4 0 0.44 0.16 0.44 0.32 l0 0.88 c0 0.32 -0.04 0.44 -0.36 0.44 c-0.52 0 -2.16 -0.12 -5.44 -0.12 c-2.92 0 -3.8 0.12 -4.36 0.12 c-0.24 0 -0.28 -0.24 -0.28 -0.52 l0 -0.76 c0 -0.24 0.04 -0.36 0.28 -0.36 l1.04 0 c0.96 0 1.92 -0.56 2.72 -1.76 c0.56 -0.84 3.4 -7.8 4.72 -11.32 c0.32 -0.8 3.56 -9.4 3.92 -10.48 c0.12 -0.4 0.32 -0.92 0.04 -1.36 c-0.12 -0.16 -0.28 -0.36 -0.28 -0.52 c0 -0.12 0.08 -0.28 0.4 -0.36 c1.28 -0.28 3.88 -1.32 4.48 -2 c0.2 -0.2 0.32 -0.36 0.52 -0.36 c0.24 0 0.32 0.24 0.44 0.68 c0.76 2.52 3.88 11.48 4.64 14.04 c0.92 3.12 3.52 10.56 4.08 11.64 c0.68 1.32 1.72 1.8 2.32 1.8 l1.36 0 c0.24 0 0.28 0.16 0.28 0.36 l0 0.76 c0 0.24 -0.04 0.52 -0.36 0.52 c-0.76 0 -1.6 -0.12 -6.72 -0.12 c-3.32 0 -4.72 0.12 -5.52 0.12 c-0.4 0 -0.44 -0.24 -0.44 -0.52 l0 -0.76 c0 -0.2 0.04 -0.36 0.24 -0.36 l1.12 0 c1.08 0 1.44 -0.4 1.2 -1.44 c-0.36 -1.44 -1.92 -6.56 -2.4 -8 z M243.68 27.439999999999998 l7.88 0 c-0.36 -1.2 -2.72 -9.6 -3 -10.6 c-0.16 -0.6 -0.24 -0.88 -0.44 -0.88 c-0.24 0 -0.36 0.16 -0.48 0.52 c-0.2 0.52 -3.64 9.96 -3.96 10.96 z"/></g><g id="SvgjsG2598" transform="matrix(0.5848753081562608,0,0,0.5848753081562608,211.2268703776561,-3.5092518489375646)" fill="#fff"><g xmlns="http://www.w3.org/2000/svg"><path d="M85,40c0-0.6-0.4-1-1-1h-9c-0.6,0-1,0.4-1,1s0.4,1,1,1h9C84.6,41,85,40.6,85,40z"/><path d="M16,39c-0.6,0-1,0.4-1,1s0.4,1,1,1h9c0.6,0,1-0.4,1-1s-0.4-1-1-1H16z"/><path d="M50,16.3c0.6,0,1-0.4,1-1V7c0-0.6-0.4-1-1-1s-1,0.4-1,1v8.3C49,15.9,49.4,16.3,50,16.3z"/><path d="M67,23.4c0.2,0.2,0.5,0.3,0.7,0.3s0.5-0.1,0.7-0.3l5.9-5.9c0.4-0.4,0.4-1,0-1.4s-1-0.4-1.4,0L67,21.9   C66.6,22.3,66.6,23,67,23.4z"/><path d="M27.1,64.6l5.9-5.9c0.4-0.4,0.4-1,0-1.4s-1-0.4-1.4,0l-5.9,5.9c-0.4,0.4-0.4,1,0,1.4c0.2,0.2,0.5,0.3,0.7,0.3   S26.9,64.8,27.1,64.6z"/><path d="M27.1,16.1c-0.4-0.4-1-0.4-1.4,0s-0.4,1,0,1.4l5.9,5.9c0.2,0.2,0.5,0.3,0.7,0.3s0.5-0.1,0.7-0.3c0.4-0.4,0.4-1,0-1.4   L27.1,16.1z"/><path d="M73.6,64.9c0.3,0,0.5-0.1,0.7-0.3c0.4-0.4,0.4-1,0-1.4l-5.9-5.9c-0.4-0.4-1-0.4-1.4,0s-0.4,1,0,1.4l5.9,5.9   C73.1,64.8,73.3,64.9,73.6,64.9z"/><path d="M30.6,38.9c-0.3,5.8,2,11.4,6.2,15.4C39.6,57,41,60.2,41,64v11c0,1.5,1.5,3,3,3h12c1.5,0,3-1.5,3-3V64c0-3.8,1.4-7,4.2-9.7   c4-3.7,6.3-9,6.3-14.5c0-5.5-2.3-10.7-6.2-14.5c-3.9-3.7-9-5.6-14.3-5.3C39.1,20.5,31,28.8,30.6,38.9z M57,75c0,0.3-0.7,1-1,1H44   c-0.3,0-1-0.7-1-1v-9h14V75z M49.1,22c0.3,0,0.6,0,0.9,0c4.4,0,8.6,1.7,11.9,4.8c3.5,3.4,5.6,8.1,5.6,13c0,5-2.1,9.7-5.6,13.1   c-3.2,3-4.8,6.8-4.8,11.1H43c0-4.3-1.6-8.1-4.9-11.2c-3.8-3.6-5.8-8.6-5.6-13.8C33,29.9,40.2,22.5,49.1,22z"/><path d="M49,51.7V61c0,0.6,0.4,1,1,1s1-0.4,1-1v-9.3l7-7c0.4-0.4,0.4-1,0-1.4s-1-0.4-1.4,0L50,49.9l-6.6-6.6c-0.4-0.4-1-0.4-1.4,0   s-0.4,1,0,1.4L49,51.7z"/></g></g><g id="SvgjsG2599" transform="matrix(0.7850674473293529,0,0,0.7850674473293529,274.4054329932142,1.8981011883500063)" fill="#fff"><path d="M14.52 25.32 c0 0.48 0.04 5.92 0.28 9.44 c0.12 1.48 0.76 3.72 2.08 3.72 l1.56 0 c0.24 0 0.28 0.12 0.28 0.28 l0 1.08 c0 0.16 -0.04 0.28 -0.36 0.28 c-0.44 0 -1.52 -0.12 -4.44 -0.12 c-3.4 0 -4.8 0.12 -5.16 0.12 c-0.32 0 -0.36 -0.04 -0.36 -0.36 l0 -1.04 c0 -0.12 0.04 -0.24 0.24 -0.24 l1.64 0 c1.28 0 1.76 -1.84 1.92 -3.12 c0.36 -2.84 0.72 -12.28 0.72 -13 l-0.04 -6.12 c0 -1.84 -0.4 -3.04 -2.2 -3.04 l-1.32 0 c-0.24 0 -0.28 -0.12 -0.28 -0.28 l0 -1.12 c0 -0.12 0.04 -0.24 0.28 -0.24 c0.4 0 1.48 0.12 6.2 0.12 c1.88 0 3.12 -0.12 3.6 -0.12 c0.4 0 0.72 0.04 0.96 0.68 c2.56 6.8 5.44 13.44 7.68 19.44 c0.44 -0.76 3.48 -8.2 3.72 -8.76 c0.16 -0.4 4.16 -9.96 4.36 -10.76 c0.12 -0.44 0.64 -0.48 1.84 -0.48 c6.24 0 7.6 -0.12 8.04 -0.12 c0.2 0 0.24 0.12 0.24 0.36 l0 0.92 c0 0.24 -0.04 0.36 -0.32 0.36 l-1.76 0 c-0.92 0 -1.04 0.72 -1.04 1.56 c0 0.6 0.04 10.44 0.08 11.28 c0 0.8 0.12 9.56 0.12 10.28 c0 1.52 0.36 2.16 0.92 2.16 l1.92 0 c0.24 0 0.28 0.12 0.28 0.28 l0 1 c0 0.24 -0.04 0.36 -0.36 0.36 c-0.48 0 -1.2 -0.12 -5.92 -0.12 c-4.08 0 -5.64 0.12 -6.16 0.12 c-0.28 0 -0.32 -0.12 -0.32 -0.36 l0 -1 c0 -0.2 0.04 -0.28 0.32 -0.28 l2.24 0 c0.68 0 1.04 -0.24 1.12 -1.36 c0.04 -0.48 0.16 -7.76 0.16 -10.56 l0 -12.2 l-0.24 0 c-0.4 0.68 -4.88 11.56 -5.6 13.2 c-0.84 1.84 -4.4 10.72 -4.6 11.08 c-0.2 0.32 -0.48 0.92 -0.96 0.92 c-0.28 0 -0.52 -0.28 -0.72 -0.72 c-0.12 -0.28 -5.4 -12.68 -5.68 -13.4 c-0.72 -1.84 -4.4 -10.8 -4.72 -11.28 c-0.16 0.56 -0.24 10.68 -0.24 11.16 z M58.68 13.04 l-0.12 11.64 c1.84 0 3.6 -0.12 4.08 -0.24 c0.68 -0.16 1.24 -0.52 1.84 -1.24 c0.44 -0.6 0.92 -1.72 0.92 -2.48 c0 -0.28 0.12 -0.36 0.32 -0.36 l1.08 0.12 c0.2 0.04 0.36 0.08 0.32 0.32 c-0.12 0.68 -0.12 2.76 -0.12 4.16 c0 1.8 0.16 3.72 0.24 4.56 c0.04 0.24 -0.12 0.28 -0.32 0.32 l-0.96 0.2 c-0.16 0.04 -0.24 -0.04 -0.32 -0.32 c-0.16 -0.64 -0.56 -1.56 -0.8 -2.04 c-0.44 -0.76 -1.4 -1.28 -2.2 -1.4 c-1.08 -0.16 -2.32 -0.24 -4.08 -0.24 l0 2.4 c0 2.16 0.2 6.04 0.2 6.76 c0 2.08 0.44 2.8 0.96 3.04 c0.6 0.24 1.36 0.36 3.36 0.36 c0.68 0 2.36 -0.04 3.2 -0.12 c0.8 -0.08 2 -0.48 3.04 -1.32 s3.28 -3.32 4.08 -4.28 c0.16 -0.16 0.28 -0.2 0.4 -0.12 l0.68 0.4 c0.16 0.08 0.2 0.2 0.16 0.32 l-1.8 6.04 c-0.12 0.36 -0.4 0.6 -0.88 0.6 c-0.2 0 -1.08 -0.04 -3.64 -0.08 c-2.6 0 -6.84 -0.04 -13.76 -0.04 c-1.48 0 -2.6 0.04 -3.4 0.04 c-0.84 0.04 -1.36 0.08 -1.72 0.08 c-0.28 0 -0.36 -0.12 -0.36 -0.44 l0 -0.84 c0 -0.24 0.12 -0.36 0.4 -0.36 l1.2 0 c1.84 0 2 -0.28 2 -1.68 l0 -13.4 c0 -3.32 -0.08 -8.24 -0.12 -8.64 c-0.16 -1.28 -0.56 -1.56 -1.64 -1.56 l-1.56 0 c-0.16 0 -0.2 -0.12 -0.2 -0.4 l0 -0.96 c0 -0.12 0.04 -0.28 0.28 -0.28 c0.88 0 2.28 0.12 5.92 0.12 l14.04 -0.04 c0.64 0 1.4 -0.08 1.6 -0.08 s0.28 0.08 0.32 0.2 c0.16 0.56 1.48 6.04 1.64 6.44 c0.08 0.2 0.08 0.28 -0.12 0.4 l-0.64 0.32 c-0.16 0.08 -0.36 0.04 -0.48 -0.16 c-0.2 -0.32 -3.8 -3.92 -4.72 -4.48 c-0.84 -0.52 -1.96 -1.04 -3.04 -1.08 z M80.28 24.64 l0 -3 c0 -1.04 -0.12 -6.72 -0.2 -7.32 c-0.12 -0.96 -0.64 -1.12 -1.32 -1.12 l-2 0 c-0.2 0 -0.32 -0.04 -0.32 -0.28 l0 -1.16 c0 -0.16 0.12 -0.2 0.28 -0.2 c0.52 0 2.28 0.12 6.28 0.12 c1.04 0 5.04 -0.12 5.96 -0.12 c5.44 0 9.76 0.48 13.56 3.64 c2.64 2.2 4.48 5.52 4.48 10.16 c0 4.6 -1.32 7.64 -3.96 10.52 c-3.88 4.2 -10.72 4.24 -13.24 4.24 c-0.64 0 -5.36 -0.12 -7.56 -0.12 c-3.48 0 -5.08 0.12 -5.64 0.12 c-0.2 0 -0.28 -0.08 -0.28 -0.36 l0 -1.04 c0 -0.16 0.12 -0.24 0.32 -0.24 l2.08 0 c0.76 0 1.2 -0.32 1.28 -0.96 c0.12 -0.84 0.28 -9.84 0.28 -12.88 z M86.28 22.68 l0 2.84 c0 0.52 0.04 7.32 0.08 9.8 c0 0.8 0.16 1.44 0.68 2.2 c0.48 0.72 1.84 0.96 3.2 0.96 c2.32 0 5.4 -1.16 7.48 -3.92 c1.6 -2.12 2.84 -5.4 2.84 -9.12 c0 -3.28 -1.36 -6.64 -3.24 -8.72 c-2.12 -2.36 -5.64 -3.64 -7.96 -3.64 c-1.12 0 -1.72 0.04 -2.24 0.32 c-0.6 0.28 -0.76 0.92 -0.8 1.72 c-0.04 1.68 -0.04 6.92 -0.04 7.56 z M114.36000000000001 26.04 l0 -2.8 c0 -0.96 -0.12 -8.16 -0.16 -8.68 c-0.08 -0.96 -0.48 -1.36 -1.32 -1.36 l-1.92 0 c-0.2 0 -0.32 -0.08 -0.32 -0.24 l0 -1.16 c0 -0.16 0.12 -0.24 0.28 -0.24 c0.48 0 2.52 0.12 6.44 0.12 c4.08 0 5.36 -0.12 5.92 -0.12 c0.2 0 0.28 0.12 0.28 0.36 l0 1 c0 0.2 -0.12 0.28 -0.32 0.28 l-1.16 0 c-1 0 -1.6 0.32 -1.6 1.04 c0 0.4 -0.12 9.24 -0.12 9.72 l0 3.08 c0 0.4 0.12 9.64 0.12 10 c0 1.24 0.6 1.44 1.36 1.44 l1.64 0 c0.2 0 0.32 0.08 0.32 0.28 l0 1.12 c0 0.16 -0.12 0.24 -0.36 0.24 c-0.48 0 -2.08 -0.12 -5.88 -0.12 c-4.2 0 -5.92 0.12 -6.36 0.12 c-0.2 0 -0.32 -0.08 -0.32 -0.32 l0 -1.08 c0 -0.16 0.12 -0.24 0.32 -0.24 l1.16 0 c0.8 0 1.64 -0.12 1.8 -1.08 c0.08 -0.6 0.2 -9.24 0.2 -11.36 z M142.20000000000002 29.04 l-8.76 0 c-0.32 0.84 -2.28 6.32 -2.28 7.6 c0 0.88 0.36 1.84 1.56 1.84 l1.4 0 c0.4 0 0.44 0.16 0.44 0.32 l0 0.88 c0 0.32 -0.04 0.44 -0.36 0.44 c-0.52 0 -2.16 -0.12 -5.44 -0.12 c-2.92 0 -3.8 0.12 -4.36 0.12 c-0.24 0 -0.28 -0.24 -0.28 -0.52 l0 -0.76 c0 -0.24 0.04 -0.36 0.28 -0.36 l1.04 0 c0.96 0 1.92 -0.56 2.72 -1.76 c0.56 -0.84 3.4 -7.8 4.72 -11.32 c0.32 -0.8 3.56 -9.4 3.92 -10.48 c0.12 -0.4 0.32 -0.92 0.04 -1.36 c-0.12 -0.16 -0.28 -0.36 -0.28 -0.52 c0 -0.12 0.08 -0.28 0.4 -0.36 c1.28 -0.28 3.88 -1.32 4.48 -2 c0.2 -0.2 0.32 -0.36 0.52 -0.36 c0.24 0 0.32 0.24 0.44 0.68 c0.76 2.52 3.88 11.48 4.64 14.04 c0.92 3.12 3.52 10.56 4.08 11.64 c0.68 1.32 1.72 1.8 2.32 1.8 l1.36 0 c0.24 0 0.28 0.16 0.28 0.36 l0 0.76 c0 0.24 -0.04 0.52 -0.36 0.52 c-0.76 0 -1.6 -0.12 -6.72 -0.12 c-3.32 0 -4.72 0.12 -5.52 0.12 c-0.4 0 -0.44 -0.24 -0.44 -0.52 l0 -0.76 c0 -0.2 0.04 -0.36 0.24 -0.36 l1.12 0 c1.08 0 1.44 -0.4 1.2 -1.44 c-0.36 -1.44 -1.92 -6.56 -2.4 -8 z M133.96 27.439999999999998 l7.88 0 c-0.36 -1.2 -2.72 -9.6 -3 -10.6 c-0.16 -0.6 -0.24 -0.88 -0.44 -0.88 c-0.24 0 -0.36 0.16 -0.48 0.52 c-0.2 0.52 -3.64 9.96 -3.96 10.96 z"/></g>
			</g>
		</svg>
	